# xmcd
#
# Track frame offsets:
#	150
#	21308
#	40201
#	58473
#	64646
#	70076
#	74369
#	83888
#	101914
#	113223
#	122014
#	127983
#	131932
#	140502
#	166513
#	177979
#	198155
#	205106
#	211917
#	220371
#	227561
#	234050
#	239651
#	253970
#	267594
#
# Disc length: 3696 seconds
#
# Revision: 0
# Processed by: cddbd v1.5.2PL0 Copyright (c) Steve Scherf et al.
# Submitted via: EasyCDDAExtractor 16.0.6.1
#
DISCID=7e0e6e19
DTITLE=Ταλιούρης Γιώργος - Γιώργος Ταλιούρης σε δημοτικά τραγούδια
DYEAR=2009
DGENRE=Παραδοσιακή
TTITLE0=Σε σφάλμα έπεσες καρδιά μου [Κώστας Σούκας-Λάκης Τσόλης]
TTITLE1=Ανάθεμά σας βάσανα [παραδοσιακό]
TTITLE2=Κρυφά μού έφυγες [Κώστας Σούκας-Λάκης Τσόλης]
TTITLE3=Η Θήβα έχει όμορφες [παραδοσιακό]
TTITLE4=Μού παρήγγειλε το αηδόνι [παραδοσιακό]
TTITLE5=Αφήστε με να καίγομαι [παραδοσιακό]
TTITLE6=Η γυναίκα που μ΄αρέσει [παραδοσιακό]
TTITLE7=Πατέρα μάς μεγάλωσες [παραδοσιακό]
TTITLE8=Μοδίστρες και κομμώτριες [Λ. Μπουρνέλης]
TTITLE9=Στολίδι είσαι μόνη σου [Σ. Χρυσίνης-Σπ. Κεφαλόπουλος]
TTITLE10=Οι Γιώργηδες [Λ. Μπουρνέλης]
TTITLE11=Ντο τα πρες [παραδοσιακό]
TTITLE12=Ξημέρωσε καλή μου [παραδοσιακό]
TTITLE13=Όταν βγαίνεις στο μπαλκόνι [Λ. Μπουρνέλης]
TTITLE14=Καπετανάκης [παραδοσιακό]
TTITLE15=Μιά μελαχροινή [παραδοσιακό]
TTITLE16=Μάλωσα εχθές το βράδυ [παραδοσιακό]
TTITLE17=Μιά Καλυβιώτισσα [παραδοσιακό]
TTITLE18=Ένα βράδυ στον Περαία [παραδοσιακό]
TTITLE19=Θ' αλλάξω σπίτι [παραδοσιακό]
TTITLE20=Ώπα λα λα [παραδοσιακό]
TTITLE21=Αγαπώ μιά μοδιστρούλα [παραδοσιακό]
TTITLE22=Το άδειο προσκεφάλι [Μπ. Δαλιάνης-Χρ. Κολοκοτρώνης]
TTITLE23=Ένας αητός [παραδοσιακό]
TTITLE24=Ιτιά, ιτιά [παραδοσιακό]
EXTD=
EXTT0=
EXTT1=
EXTT2=
EXTT3=
EXTT4=
EXTT5=
EXTT6=
EXTT7=
EXTT8=
EXTT9=
EXTT10=
EXTT11=
EXTT12=
EXTT13=
EXTT14=
EXTT15=
EXTT16=
EXTT17=
EXTT18=
EXTT19=
EXTT20=
EXTT21=
EXTT22=
EXTT23=
EXTT24=
PLAYORDER=
